<svg xmlns="http://www.w3.org/2000/svg" width="1000" height="650" viewBox="0 0 1000 650">
<defs><linearGradient id="wall" x2="0" y2="1"><stop stop-color="#a9afa5"/><stop offset="1" stop-color="#7e8980"/></linearGradient><linearGradient id="metal"><stop stop-color="#485c55"/><stop offset=".4" stop-color="#92a398"/><stop offset=".6" stop-color="#758b7e"/><stop offset="1" stop-color="#3e5149"/></linearGradient><pattern id="grid" width="125" height="90" patternUnits="userSpaceOnUse"><path d="M0 90V0H125" stroke="#66756b" opacity=".25" fill="none"/></pattern></defs>
<path fill="url(#wall)" d="M0 0h1000v490H0z"/><path fill="url(#grid)" d="M0 0h1000v490H0z"/><path fill="#627269" d="M0 490h1000v160H0z"/><path d="m0 650 210-160m150 160 60-160m210 160-40-160m410 150L790 490M0 545h1000M0 610h1000" stroke="#869287" opacity=".4"/>
<rect x="70" y="45" width="156" height="220" rx="5" fill="#6c7d72" stroke="#54675c" stroke-width="5"/><rect x="85" y="59" width="126" height="184" rx="3" fill="#8a978a"/><rect x="106" y="85" width="86" height="40" fill="#3f5147"/><text x="119" y="111" fill="#c9d7b3" font-family="monospace" font-size="16">MCC-02</text><circle cx="117" cy="153" r="7" fill="#b4c779"/><circle cx="149" cy="153" r="7" fill="#744e3d"/><path d="M100 193h85m-85 10h85m-85 10h85" stroke="#617267" stroke-width="3"/>
<path d="M-20 315H290V210H685V-20" fill="none" stroke="#455d51" stroke-width="50"/><path d="M-20 315H290V210H685V-20" fill="none" stroke="url(#metal)" stroke-width="37"/>
<path d="M1000 390H780V300H470V415" fill="none" stroke="#455d51" stroke-width="46"/><path d="M1000 390H780V300H470V415" fill="none" stroke="url(#metal)" stroke-width="34"/>
<path d="M290 315v90m0 65v65h180V460" fill="none" stroke="#4b6356" stroke-width="45"/><path d="M290 315v90m0 65v65h180V460" fill="none" stroke="url(#metal)" stroke-width="30"/>
<ellipse cx="374" cy="538" rx="170" ry="25" fill="#304c3a" opacity=".2"/><rect x="226" y="476" width="290" height="35" rx="5" fill="#3d5045"/><rect x="260" y="392" width="230" height="92" rx="25" fill="#345b4d"/><ellipse cx="280" cy="438" rx="45" ry="54" fill="#567d66" stroke="#315445" stroke-width="8"/><circle cx="280" cy="438" r="22" fill="#29473d"/><rect x="351" y="403" width="140" height="67" rx="11" fill="#577c65"/><path d="M365 407v58m15-58v58m15-58v58m15-58v58m15-58v58m15-58v58m15-58v58m15-58v58" stroke="#385e4b" stroke-width="4"/><rect x="390" y="380" width="62" height="30" rx="3" fill="#708d73"/><rect x="253" y="469" width="59" height="18" fill="#b3bb9e"/><text x="261" y="482" font-size="12" font-family="monospace" fill="#34473b">P-001</text>
<rect x="647" y="210" width="58" height="38" rx="5" fill="#9b9980"/><path d="M675 220v-38" stroke="#a19d89" stroke-width="10"/><ellipse cx="675" cy="172" rx="39" ry="11" fill="none" stroke="#854c3e" stroke-width="8"/><path d="M637 172h77" stroke="#854c3e" stroke-width="5"/>
<rect x="698" y="515" width="140" height="62" rx="8" fill="#8b6146" stroke="#674c39" stroke-width="4"/><path d="M741 515v-17h51v17" fill="none" stroke="#493f33" stroke-width="9"/><path d="M700 535h135" stroke="#ae8359" stroke-width="4"/><rect x="757" y="532" width="15" height="20" fill="#bbb393"/>
<rect x="850" y="58" width="109" height="37" rx="3" fill="#c0c5ae"/><text x="865" y="81" font-family="monospace" font-size="14" fill="#415346">ROOM 014</text><text x="28" y="36" fill="#dbe2ce" font-size="12" letter-spacing="3" font-family="monospace">SYNTHETIC DEMO / CAPTURE 01</text></svg>
